<svg xmlns="http://www.w3.org/2000/svg" width="36" height="36" viewBox="0 0 36 36"><defs><style>.a{fill:#7e7e7e;}</style></defs><path class="a" d="M13.636,3A10.649,10.649,0,0,0,3,13.636V28.364A10.649,10.649,0,0,0,13.636,39H28.364A10.649,10.649,0,0,0,39,28.364V13.636A10.649,10.649,0,0,0,28.364,3Zm0,1.636H28.364a8.988,8.988,0,0,1,9,9V28.364a8.988,8.988,0,0,1-9,9H13.636a8.988,8.988,0,0,1-9-9V13.636A8.988,8.988,0,0,1,13.636,4.636ZM30.818,9.545a1.636,1.636,0,1,0,1.636,1.636A1.636,1.636,0,0,0,30.818,9.545ZM21,12a9,9,0,1,0,9,9A9.012,9.012,0,0,0,21,12Zm0,1.636A7.364,7.364,0,1,1,13.636,21,7.351,7.351,0,0,1,21,13.636Z" transform="translate(-3 -3)"/></svg>