<svg xmlns="http://www.w3.org/2000/svg" width="36" height="36" viewBox="0 0 36 36"><defs><style>.a{fill:#7e7e7e;}</style></defs><path class="a" d="M20,2A17.925,17.925,0,0,0,4.336,28.772L2.029,37.006a.783.783,0,0,0,.942.971l8.586-2.128A17.982,17.982,0,1,0,20,2Zm0,1.565a16.435,16.435,0,1,1-8.013,30.783.783.783,0,0,0-.57-.076L3.9,36.135l2.016-7.193a.783.783,0,0,0-.078-.61A16.431,16.431,0,0,1,20,3.565Zm-6.541,7.043a2.489,2.489,0,0,0-1.807.821,6.1,6.1,0,0,0-1.827,4.34,9.228,9.228,0,0,0,2.045,5.192h0v0c-.021-.028.28.408.682.931a24.791,24.791,0,0,0,1.669,1.952A18.123,18.123,0,0,0,20.083,28.1a27.876,27.876,0,0,0,2.707.987,7.215,7.215,0,0,0,3.26.208,5.5,5.5,0,0,0,2.051-.847,3.8,3.8,0,0,0,1.689-1.831,6.456,6.456,0,0,0,.367-1.611,3.693,3.693,0,0,0,.008-.616,1.073,1.073,0,0,0-.173-.615c-.364-.6-.777-.614-1.208-.827-.239-.118-.92-.451-1.6-.777s-1.273-.613-1.637-.743a1.844,1.844,0,0,0-.916-.156,1.558,1.558,0,0,0-1.038.683c-.221.327-1.109,1.376-1.38,1.684,0,0,.02.009-.087-.044-.335-.166-.745-.307-1.351-.627a11.182,11.182,0,0,1-2.195-1.524v0A12.926,12.926,0,0,1,16.2,18.533c.018-.022,0,0,.037-.034h0c.279-.275.526-.6.735-.844a3.9,3.9,0,0,0,.569-.923,1.731,1.731,0,0,0-.038-1.5v0c.011.022-.088-.2-.2-.451s-.245-.584-.391-.935c-.293-.7-.62-1.492-.815-1.953v0a2.036,2.036,0,0,0-.945-1.125,1.512,1.512,0,0,0-.778-.136h0C14.092,10.612,13.774,10.609,13.459,10.609Zm0,1.565c.3,0,.6,0,.848.015s.24.014.191-.009.018-.031.164.315c.19.452.519,1.244.813,1.949.147.353.284.684.394.943s.169.4.238.543v0h0c.068.134.062.048.038.095a2.279,2.279,0,0,1-.355.6c-.254.293-.514.62-.651.755a1.682,1.682,0,0,0-.472.662,1.514,1.514,0,0,0,.145,1.224,14.32,14.32,0,0,0,2.727,3.351,12.8,12.8,0,0,0,2.5,1.735c.7.367,1.261.581,1.388.643a1.758,1.758,0,0,0,1.012.219,1.524,1.524,0,0,0,.922-.515h0c.279-.317,1.109-1.264,1.507-1.848.017.006.011,0,.144.049v0h0c.06.022.817.36,1.492.682s1.36.656,1.582.766c.321.159.473.262.512.263a1.835,1.835,0,0,1,0,.257,4.979,4.979,0,0,1-.28,1.215,2.952,2.952,0,0,1-1.053,1.041,4.867,4.867,0,0,1-1.444.621,5.609,5.609,0,0,1-2.562-.153A26.157,26.157,0,0,1,20.7,26.66a16.727,16.727,0,0,1-5.338-3.892,23.261,23.261,0,0,1-1.564-1.83c-.375-.488-.539-.742-.676-.922l0,0a8.455,8.455,0,0,1-1.727-4.246A4.125,4.125,0,0,1,12.8,12.495.927.927,0,0,1,13.459,12.174Z" transform="translate(-2 -2)"/></svg>