<svg xmlns="http://www.w3.org/2000/svg" width="36" height="36" viewBox="0 0 36 36"><defs><style>.a{fill:#7e7e7e;}</style></defs><path class="a" d="M21,3a18.02,18.02,0,0,0-2.689,35.835l.94.142V24.771H15V21.887H19.25v-3.83c0-2.358.565-3.912,1.5-4.886A5.577,5.577,0,0,1,24.992,11.7a17.78,17.78,0,0,1,2.705.163v2.361h-2a2.936,2.936,0,0,0-2.552,1.48,5.773,5.773,0,0,0-.634,2.884v3.292h5.01l-.446,2.884H22.509V39l.928-.126A18.021,18.021,0,0,0,21,3Zm0,1.639a16.35,16.35,0,0,1,3.145,32.4V26.408h4.331l.951-6.162H24.145V18.593a4.448,4.448,0,0,1,.417-2.069,1.1,1.1,0,0,1,1.133-.656h3.639V10.383l-.709-.1a24.909,24.909,0,0,0-3.632-.222,7.251,7.251,0,0,0-5.42,1.969c-1.31,1.365-1.958,3.4-1.958,6.023v2.191H13.362V26.41h4.252V36.985A16.349,16.349,0,0,1,21,4.639Z" transform="translate(-3 -3)"/></svg>